<svg height="512pt" viewBox="0 0 512 512" width="512pt" xmlns="http://www.w3.org/2000/svg"><path d="m195.597656 504.5c-7.667968 0-14.542968-5.359375-16.175781-13.160156-7.542969-36.109375 1.796875-96.664063 3.824219-106.304688 1.886718-8.9375 10.660156-14.65625 19.601562-12.773437 8.9375 1.882812 14.65625 10.65625 12.773438 19.597656-2.371094 11.242187-9.601563 65.019531-3.8125 92.710937 1.867187 8.941407-3.867188 17.707032-12.808594 19.574219-1.144531.242188-2.28125.355469-3.402344.355469zm0 0" fill="#efd176"/><path d="m295.902344 504.5c-1.121094 0-2.257813-.113281-3.398438-.351562-8.941406-1.871094-14.675781-10.632813-12.808594-19.578126 5.785157-27.699218-1.441406-81.46875-3.8125-92.710937-1.886718-8.9375 3.832032-17.714844 12.769532-19.597656 8.9375-1.886719 17.714844 3.832031 19.601562 12.769531 2.03125 9.640625 11.371094 70.1875 3.824219 106.308594-1.628906 7.800781-8.507813 13.160156-16.175781 13.160156zm0 0" fill="#efd176"/><path d="m401.433594 328.125c-31.941406 0-53.195313-14.195312-73.394532-30.410156-7.125-5.722656-8.261718-16.132813-2.542968-23.253906 5.71875-7.125 16.128906-8.265626 23.253906-2.546876 25.015625 20.089844 44.996094 31.984376 92.851562 15.03125 8.617188-3.050781 18.066407 1.457032 21.117188 10.066407 3.050781 8.613281-1.457031 18.066406-10.070312 21.117187-19.890626 7.046875-36.667969 9.996094-51.214844 9.996094zm0 0" fill="#efd176"/><path d="m100.140625 330.191406c-1.0625 0-2.117187-.027344-3.179687-.078125-24.839844-1.222656-48.074219-16.347656-69.050782-44.960937-5.402344-7.367188-3.808594-17.71875 3.558594-23.121094 7.367188-5.398438 17.71875-3.808594 23.121094 3.5625 14.796875 20.175781 29.597656 30.765625 43.996094 31.476562 16.878906.839844 32.265624-12.210937 42.207031-23.300781 6.097656-6.800781 16.558593-7.367187 23.355469-1.269531 6.804687 6.097656 7.371093 16.554688 1.273437 23.355469-20.191406 22.515625-42.695313 34.335937-65.28125 34.335937zm0 0" fill="#efd176"/><path d="m200.273438 74.148438c23.273437 23.273437 27.261718 59.503906 27.660156 78.101562.144531 6.757812-5.378906 12.28125-12.136719 12.136719-18.597656-.398438-54.828125-4.386719-78.101563-27.660157-23.273437-23.273437-27.261718-59.503906-27.660156-78.101562-.144531-6.757812 5.378906-12.28125 12.136719-12.136719 18.597656.398438 54.828125 4.382813 78.101563 27.660157zm0 0" fill="#8ee2cf"/><path d="m182.941406 126.894531c-1.917968 0-3.839844-.734375-5.304687-2.199219l-27.910157-27.910156c-2.929687-2.929687-2.929687-7.679687 0-10.609375 2.929688-2.929687 7.675782-2.929687 10.605469 0l27.910157 27.914063c2.929687 2.929687 2.929687 7.675781 0 10.605468-1.460938 1.464844-3.382813 2.199219-5.300782 2.199219zm0 0" fill="#6fce91"/><path d="m291.226562 74.148438c-23.273437 23.273437-27.261718 59.503906-27.660156 78.101562-.144531 6.757812 5.378906 12.28125 12.136719 12.136719 18.597656-.398438 54.828125-4.386719 78.101563-27.660157 23.273437-23.273437 27.261718-59.503906 27.660156-78.101562.144531-6.757812-5.378906-12.28125-12.136719-12.136719-18.597656.398438-54.828125 4.382813-78.101563 27.660157zm0 0" fill="#8ee2cf"/><path d="m308.558594 126.894531c-1.917969 0-3.835938-.734375-5.300782-2.199219-2.929687-2.929687-2.929687-7.675781 0-10.605468l27.910157-27.910156c2.929687-2.929688 7.679687-2.929688 10.605469 0 2.929687 2.925781 2.929687 7.675781 0 10.605468l-27.910157 27.910156c-1.464843 1.464844-3.382812 2.199219-5.304687 2.199219zm0 0" fill="#6fce91"/><path d="m290 85.945312c0 32.914063-22.800781 61.355469-35.667969 74.785157-4.675781 4.878906-12.488281 4.878906-17.164062 0-12.867188-13.429688-35.667969-41.871094-35.667969-74.785157 0-32.914062 22.800781-61.355468 35.667969-74.785156 4.675781-4.878906 12.488281-4.878906 17.164062 0 12.867188 13.429688 35.667969 41.871094 35.667969 74.785156zm0 0" fill="#8ee2cf"/><path d="m245.75 113.179688c-4.140625 0-7.5-3.355469-7.5-7.5v-39.472657c0-4.140625 3.359375-7.5 7.5-7.5 4.144531 0 7.5 3.359375 7.5 7.5v39.472657c0 4.144531-3.355469 7.5-7.5 7.5zm0 0" fill="#6fce91"/><path d="m245.75 133.828125c68.277344 0 117.082031 53.773437 123.625 135.203125 6.804688 84.703125-25.054688 147.886719-123.625 147.886719-98.566406 0-130.429688-63.183594-123.625-147.886719 6.542969-81.429688 55.347656-135.203125 123.625-135.203125zm0 0" fill="#f7ef87"/><path d="m204.9375 140.925781c-46.359375 17.113281-77.664062 64.046875-82.8125 128.105469-6.785156 84.46875 24.886719 147.527344 122.8125 147.878906-118.859375-72.722656-86.984375-203.925781-40-275.984375zm0 0" fill="#efd176"/><path d="m207.492188 320.867188c0-12.828126-13.058594-23.226563-29.164063-23.226563s-29.164063 10.398437-29.164063 23.226563c0 12.824218 13.058594 23.222656 29.164063 23.222656s29.164063-10.398438 29.164063-23.222656zm0 0" fill="#eda1ab"/><path d="m365.5625 320.867188c0-12.828126-13.054688-23.226563-29.164062-23.226563-16.105469 0-29.160157 10.398437-29.160157 23.226563 0 12.824218 13.054688 23.222656 29.160157 23.222656 16.109374 0 29.164062-10.398438 29.164062-23.222656zm0 0" fill="#eda1ab"/><path d="m280.878906 303.023438c0-14.53125-10.527344-26.3125-23.515625-26.3125-12.984375 0-23.511719 11.78125-23.511719 26.3125 0 14.527343 10.527344 26.308593 23.511719 26.308593 12.988281 0 23.515625-11.78125 23.515625-26.308593zm0 0" fill="#4e5660"/><g fill="#efd176"><path d="m257.753906 238.242188c-1.917968 0-3.839844-.734376-5.304687-2.199219l-6.699219-6.699219-6.699219 6.699219c-2.929687 2.929687-7.679687 2.929687-10.605469 0-2.929687-2.929688-2.929687-7.675781 0-10.605469l12.003907-12.003906c2.929687-2.925782 7.675781-2.925782 10.605469 0l12.003906 12.003906c2.929687 2.929688 2.929687 7.679688 0 10.605469-1.464844 1.464843-3.386719 2.199219-5.304688 2.199219zm0 0"/><path d="m326.378906 238.242188c-1.917968 0-3.839844-.734376-5.304687-2.199219l-6.695313-6.699219-6.703125 6.699219c-2.929687 2.929687-7.679687 2.929687-10.605469 0-2.929687-2.929688-2.929687-7.675781 0-10.605469l12.003907-12.003906c1.40625-1.40625 3.3125-2.195313 5.304687-2.195313 1.988282 0 3.894532.789063 5.300782 2.195313l12.003906 12.003906c2.929687 2.929688 2.929687 7.679688 0 10.605469-1.464844 1.464843-3.382813 2.199219-5.304688 2.199219zm0 0"/><path d="m189.128906 238.242188c-1.917968 0-3.839844-.734376-5.304687-2.199219l-6.699219-6.699219-6.699219 6.699219c-2.929687 2.929687-7.679687 2.929687-10.605469 0-2.929687-2.929688-2.929687-7.675781 0-10.605469l12-12.003906c2.929688-2.925782 7.679688-2.925782 10.609376 0l12 12.003906c2.929687 2.929688 2.929687 7.679688 0 10.605469-1.464844 1.464843-3.382813 2.199219-5.300782 2.199219zm0 0"/><path d="m292.066406 378.929688c-1.917968 0-3.839844-.734376-5.304687-2.199219l-6.699219-6.699219-6.699219 6.699219c-2.929687 2.929687-7.679687 2.929687-10.605469 0-2.929687-2.929688-2.929687-7.675781 0-10.605469l12.003907-12.003906c1.40625-1.40625 3.3125-2.195313 5.304687-2.195313 1.988282 0 3.894532.789063 5.300782 2.195313l12.003906 12.003906c2.929687 2.929688 2.929687 7.679688 0 10.605469-1.464844 1.464843-3.386719 2.199219-5.304688 2.199219zm0 0"/><path d="m223.441406 378.929688c-1.917968 0-3.839844-.734376-5.304687-2.199219l-6.699219-6.699219-6.699219 6.699219c-2.929687 2.929687-7.679687 2.929687-10.605469 0-2.929687-2.929688-2.929687-7.675781 0-10.605469l12.003907-12.003906c2.925781-2.929688 7.675781-2.929688 10.605469 0l12 12.003906c2.929687 2.929688 2.929687 7.679688 0 10.605469-1.464844 1.464843-3.382813 2.199219-5.300782 2.199219zm0 0"/></g><path d="m472.347656 244.1875h-52.96875c-7.464844 0-13.515625 6.050781-13.515625 13.511719 0 7.460937 6.050781 13.511719 13.515625 13.511719h52.96875c7.460938 0 13.511719-6.050782 13.511719-13.511719 0-7.460938-6.050781-13.511719-13.511719-13.511719zm0 0" fill="#6a96d7"/><path d="m465.261719 313.660156v-42.449218h-38.796875v42.449218c0 8.832032-2.46875 17.492188-7.125 24.996094l-23.605469 38.058594c-6.136719 9.894531.980469 22.683594 12.625 22.683594h75.007813c11.644531 0 18.761718-12.789063 12.621093-22.683594l-23.605469-38.058594c-4.65625-7.503906-7.121093-16.164062-7.121093-24.996094zm0 0" fill="#8eafe2"/><path d="m73.984375 206.109375h-52.972656c-7.460938 0-13.511719 6.050781-13.511719 13.511719 0 7.464844 6.050781 13.515625 13.511719 13.515625h52.972656c7.460937 0 13.511719-6.050781 13.511719-13.515625 0-7.460938-6.050782-13.511719-13.511719-13.511719zm0 0" fill="#6a96d7"/><path d="m408.359375 399.402344h75.007813c2.675781 0 5.109374-.683594 7.199218-1.84375-27.527344-9.191406-57.621094-45.957032-64.355468-79.277344-.707032 7.207031-3.03125 14.1875-6.871094 20.375l-23.605469 38.058594c-6.136719 9.894531.980469 22.6875 12.625 22.6875zm0 0" fill="#6a96d7"/><path d="m472.382812 338.660156c-.707031-1.140625-1.34375-2.3125-1.949218-3.503906-14.6875 2.75-31.988282-1.949219-47.289063-4.140625-1.039062 2.644531-2.292969 5.210937-3.804687 7.644531l-23.605469 38.054688c-6.136719 9.894531.980469 22.6875 12.625 22.6875h75.007813c11.644531 0 18.761718-12.792969 12.621093-22.6875zm0 0" fill="#f7ef87"/><path d="m482.832031 148.691406c-3.335937-.4375-6.558593-.210937-9.5625.5625-2.339843.601563-4.78125-.460937-6.039062-2.527344-4.390625-7.203124-12.316407-12.011718-21.367188-12.011718-9.054687 0-16.976562 4.808594-21.367187 12.011718-1.257813 2.0625-3.699219 3.128907-6.042969 2.527344-3.003906-.773437-6.230469-1-9.566406-.5625-11.3125 1.484375-20.304688 10.699219-21.515625 22.042969-1.605469 15.046875 10.144531 27.769531 24.867187 27.769531 2.105469 0 4.144531-.261718 6.097657-.753906 2.09375-.523438 4.296874.273438 5.457031 2.09375l14.933593 23.402344c.84375 1.324218 2.8125 1.195312 3.476563-.226563l1.859375-3.972656c.714844-1.527344 2.882812-1.527344 3.597656 0l1.863282 3.972656c.664062 1.421875 2.628906 1.546875 3.472656.226563l14.933594-23.402344c1.164062-1.820312 3.363281-2.617188 5.460937-2.09375 1.949219.492188 3.992187.753906 6.09375.753906 14.726563 0 26.476563-12.722656 24.867187-27.777344-1.210937-11.34375-10.207031-20.554687-21.519531-22.035156zm0 0" fill="#efd176"/><path d="m408.359375 399.402344h75.007813c2.675781 0 5.109374-.683594 7.199218-1.84375-23.738281-7.925782-49.382812-36.355469-60.3125-65.402344-2.402344-.414062-4.78125-.808594-7.109375-1.140625-1.039062 2.640625-2.292969 5.207031-3.804687 7.640625l-23.605469 38.058594c-6.136719 9.894531.980469 22.6875 12.625 22.6875zm0 0" fill="#efd176"/><path d="m47.496094 336.3125c-12.792969 0-23.160156-10.371094-23.160156-23.164062v-80.015626h46.324218v80.015626c0 12.792968-10.371094 23.164062-23.164062 23.164062zm0 0" fill="#8eafe2"/><path d="m47.496094 336.3125c11.960937 0 21.796875-9.066406 23.027344-20.699219-25.203126-8.585937-29.570313-45-30.597657-82.476562h-15.589843v80.011719c0 12.792968 10.367187 23.164062 23.160156 23.164062zm0 0" fill="#6a96d7"/><path d="m47.496094 336.3125c12.792968 0 23.164062-10.371094 23.164062-23.164062v-49.144532c-17.257812 4.1875-34.753906-3.710937-46.324218-2.453125v51.597657c0 12.792968 10.367187 23.164062 23.160156 23.164062zm0 0" fill="#8ee2cf"/><path d="m47.496094 336.3125c11.960937 0 21.796875-9.066406 23.027344-20.699219-18.261719-6.222656-25.585938-27.054687-28.625-52.324219-6.613282-1.144531-12.628907-2.273437-17.5625-1.738281v51.597657c0 12.792968 10.367187 23.164062 23.160156 23.164062zm0 0" fill="#6fce91"/><path d="m478.757812 334.703125c-.59375-.953125-1.125-1.933594-1.632812-2.929687-.027344-.046876-.046875-.097657-.074219-.148438-2.804687-5.558594-4.289062-11.699219-4.289062-17.964844v-34.96875c11.394531-.222656 20.597656-9.546875 20.597656-20.992187 0-11.585938-9.425781-21.011719-21.011719-21.011719h-52.972656c-11.585938 0-21.011719 9.425781-21.011719 21.011719 0 11.445312 9.207031 20.769531 20.601563 20.992187v6.917969c-16.214844 3.347656-29.039063 2.292969-41.335938-3.390625-.144531-4.5-.402344-9.09375-.777344-13.789062-3.347656-41.675782-17.386718-77.152344-40.597656-102.589844-1.640625-1.796875-3.320312-3.527344-5.03125-5.203125 10.949219-4.792969 20.296875-11.019531 27.886719-18.605469 24.960937-24.960938 29.417969-62.871094 29.851563-83.246094.113281-5.332031-1.898438-10.347656-5.675782-14.121094-3.773437-3.773437-8.808594-5.804687-14.117187-5.675781-18.300781.394531-50.734375 4.039063-75.234375 22.851563-7.136719-24.558594-23.433594-44.648438-34.1875-55.867188-3.6875-3.851562-8.65625-5.972656-13.996094-5.972656-5.335938 0-10.308594 2.121094-13.996094 5.972656-10.753906 11.21875-27.050781 31.308594-34.1875 55.867188-24.503906-18.8125-56.933594-22.460938-75.234375-22.851563-5.351562-.128906-10.34375 1.902344-14.117187 5.675781-3.777344 3.773438-5.792969 8.789063-5.675782 14.121094.140626 6.714844.679688 13.441406 1.59375 19.992188.523438 3.75 3.738282 6.464844 7.417969 6.464844.347657 0 .695313-.023438 1.046875-.074219 4.105469-.574219 6.964844-4.363281 6.390625-8.464844-.835937-5.972656-1.324219-12.109375-1.453125-18.238281-.035156-1.625.789063-2.699219 1.285156-3.191406.492188-.496094 1.578126-1.3125 3.191407-1.289063 41.273437.882813 62.84375 15.648437 72.3125 24.835937-.207031 2.347657-.324219 4.722657-.324219 7.125 0 15.117188 4.332031 30.667969 12.859375 46.339844-12.097656 3.90625-23.378906 9.703125-33.664063 17.316406-12.289062-4.320312-22.441406-10.421874-30.199218-18.175781-5.957032-5.960937-10.980469-13.378906-14.925782-22.050781-1.714843-3.773438-6.164062-5.433594-9.933593-3.722656-3.769531 1.71875-5.4375 6.164062-3.71875 9.933594 4.691406 10.3125 10.738281 19.210937 17.972656 26.445312 7.589844 7.585938 16.9375 13.816406 27.886719 18.605469-1.710938 1.675781-3.390625 3.40625-5.03125 5.203125-23.210938 25.4375-37.25 60.914062-40.597656 102.589844-.484376 6.042968-.765626 11.914062-.867188 17.628906-5.179688 2.554687-10.160156 3.75-14.824219 3.519531-6.617187-.324219-13.601562-3.460937-20.796875-9.308594v-40.054687c9.59375-1.941406 16.835938-10.433594 16.835938-20.589844 0-11.585938-9.425782-21.011719-21.011719-21.011719h-52.972656c-11.585938 0-21.011719 9.425781-21.011719 21.011719 0 10.15625 7.242188 18.648438 16.835938 20.589844v21.371094.015624 51.546876c0 16.910156 13.753906 30.664062 30.660156 30.664062 9.820312 0 18.574218-4.648438 24.1875-11.851562 8.117187 3.316406 16.464844 5.226562 24.910156 5.644531 1.183594.058593 2.378906.085937 3.546875.085937 6.152344 0 12.34375-.816406 18.488281-2.390625 5.054688 21.019531 14.011719 38.574219 26.847656 52.484375 7.613282 8.246094 16.527344 15.109375 26.707032 20.585938-2.667969 22.351562-5.503906 58.660156-.101563 84.503906 2.316407 11.082031 12.203125 19.125 23.515625 19.125 1.648438 0 3.304688-.171875 4.933594-.511719 12.976562-2.710937 21.328125-15.472656 18.617188-28.449219-3.519532-16.832031-1.746094-43.957031-.15625-60.300781 8.445312 1.113281 17.363281 1.679688 26.757812 1.679688s18.3125-.566407 26.757812-1.679688c1.589844 16.339844 3.363282 43.464844-.15625 60.300781-2.710937 12.976563 5.640626 25.738282 18.621094 28.449219 1.625.339844 3.285156.511719 4.929688.511719 10.046875 0 19.109375-6.339844 22.558594-15.773438 1.421874-3.886718-.578126-8.195312-4.46875-9.617187-3.894532-1.421875-8.195313.578125-9.617188 4.46875-1.296875 3.542969-4.699219 5.921875-8.472656 5.921875-.621094 0-1.25-.066406-1.863282-.195312-4.882812-1.019532-8.023437-5.820313-7.003906-10.699219 3.929688-18.808594 2.183594-47.1875.289063-66.003907 6.183593-1.40625 12.058593-3.160156 17.632812-5.246093 1.265625 11.640625 2.59375 27.710937 2.515625 43.457031-.023437 4.140625 3.320313 7.515625 7.464844 7.539062h.035156c4.125 0 7.480469-3.335937 7.5-7.464843.089844-18.195313-1.539062-36.480469-3.152344-50.019531 10.175782-5.472657 19.089844-12.335938 26.703126-20.582032 13.515624-14.648437 22.730468-33.332031 27.613281-55.855468 8.90625 2.476562 18.074219 3.695312 27.792969 3.695312 3.667968 0 7.449218-.1875 11.304687-.546875l-23.375 37.683594c-4.335937 6.996093-4.539063 15.464843-.535156 22.652343 4 7.195313 11.304687 11.488282 19.535156 11.488282h75.007813c8.226562 0 15.53125-4.296875 19.53125-11.484375 4.003906-7.191407 3.800781-15.660157-.535157-22.65625zm-415.597656-21.554687c0 8.636718-7.027344 15.664062-15.664062 15.664062-8.636719 0-15.660156-7.027344-15.660156-15.664062v-43.878907c2.386718.300781 4.992187.75 7.675781 1.21875 5.972656 1.039063 12.875 2.242188 20.152343 2.242188 1.15625 0 2.324219-.035157 3.496094-.097657zm0-55.542969c-6.996094.550781-14.128906-.683594-21.074218-1.894531-3.53125-.617188-6.953126-1.203126-10.25-1.53125v-13.546876h31.324218zm-42.148437-31.972657c-3.316407 0-6.011719-2.695312-6.011719-6.011718 0-3.3125 2.695312-6.011719 6.011719-6.011719h52.972656c3.3125 0 6.011719 2.699219 6.011719 6.011719 0 3.316406-2.699219 6.011718-6.011719 6.011718zm79.128906 97.058594c-.925781 0-1.871094-.023437-2.8125-.070312-6.605469-.324219-13.175781-1.808594-19.597656-4.386719.277343-1.65625.429687-3.351563.429687-5.085937v-14.738282c6.660156 3.753906 13.367188 5.820313 20.054688 6.148438.640625.035156 1.277344.050781 1.921875.050781 4.574219 0 9.21875-.808594 13.898437-2.410156.324219 6.34375.917969 12.457031 1.773438 18.339843-5.230469 1.421876-10.476563 2.152344-15.667969 2.152344zm197.359375-236.746094c0-2.398437-.117188-4.769531-.324219-7.113281 21.28125-20.699219 54.367188-24.464843 72.3125-24.847656 1.609375-.003906 2.699219.792969 3.191407 1.289063.496093.492187 1.320312 1.566406 1.285156 3.191406-.386719 18.125-4.210938 51.707031-25.464844 72.960937-7.753906 7.753907-17.90625 13.855469-30.195312 18.175781-10.285157-7.613281-21.566407-13.414062-33.664063-17.316406 8.527344-15.671875 12.859375-31.222656 12.859375-46.339844zm-54.914062-69.597656c1.125-1.171875 2.464843-1.347656 3.164062-1.347656s2.042969.175781 3.167969 1.347656c29.222656 30.5 33.585937 56.695313 33.585937 69.597656 0 13.628907-4.359375 27.917969-12.941406 42.535157-7.679688-1.421875-15.628906-2.152344-23.8125-2.152344-8.179688 0-16.128906.730469-23.8125 2.152344-8.578125-14.617188-12.9375-28.910157-12.9375-42.535157 0-12.902343 4.363281-39.097656 33.585938-69.597656zm-45.117188 480.457032c-.621094.128906-1.25.195312-1.871094.195312-4.246094 0-7.960937-3.027344-8.832031-7.195312-4.695313-22.457032-2.363281-55.191407-.21875-74.949219 5.574219 2.089843 11.449219 3.84375 17.628906 5.246093-1.890625 18.816407-3.640625 47.199219.289063 66.003907 1.019531 4.878906-2.121094 9.679687-6.996094 10.699219zm163.109375-176.597657c-.140625.519531-.222656 1.046875-.25 1.570313-3.863281 23.054687-12.324219 41.742187-25.328125 55.832031-19.476562 21.105469-49.503906 31.808594-89.25 31.808594-39.742188 0-69.769531-10.703125-89.246094-31.808594-12.378906-13.410156-20.632812-30.980469-24.734375-52.519531-.042969-.5-.132812-1-.277343-1.496094-1.804688-10.03125-2.730469-20.898438-2.757813-32.601562.019531-.292969.023437-.585938.007813-.878907.007812-6.570312.289062-13.394531.859374-20.484375 3.082032-38.328125 15.78125-70.722656 36.726563-93.679687 3.980469-4.359375 8.210937-8.320313 12.675781-11.882813.019532-.015625.042969-.035156.0625-.050781 18.699219-14.894531 41.445313-22.6875 66.683594-22.6875 8.804688 0 17.308594.949219 25.441406 2.816406.023438.003907.046875.011719.070313.015625 15.144531 3.488282 29.007812 10.167969 41.160156 19.847656.027344.019532.050781.042969.078125.0625 4.460938 3.558594 8.695312 7.519532 12.671875 11.878907 20.945313 22.957031 33.644531 55.351562 36.726563 93.679687.472656 5.859375.746093 11.539063.835937 17.046875-.007813.226563-.003906.457031.011719.683594.15625 11.769531-.574219 22.71875-2.167969 32.847656zm52.785156-62.507812c0-3.3125 2.699219-6.011719 6.011719-6.011719h52.972656c3.3125 0 6.011719 2.699219 6.011719 6.011719 0 3.316406-2.695313 6.011719-6.011719 6.011719h-52.972656c-3.3125 0-6.011719-2.695313-6.011719-6.011719zm46.4375 70.785156c-7.695312-.101563-16.074219-1.574219-24.257812-3.019531-.910157-.160156-1.839844-.316406-2.757813-.476563.78125-3.707031 1.179688-7.503906 1.179688-11.328125v-34.949218h23.796875v34.949218c0 5.039063.691406 10.023438 2.039062 14.824219zm-58.367187-7.859375c-8.882813 0-17.199219-1.195312-25.261719-3.59375.75-5.96875 1.230469-12.175781 1.449219-18.613281 7.699218 2.738281 15.675781 4.101562 24.257812 4.101562 5.425782 0 11.097656-.554687 17.085938-1.632812v12.773437c0 1.882813-.136719 3.753906-.398438 5.601563-5.945312.898437-11.691406 1.363281-17.132812 1.363281zm88.359375 67.496094c-.632813 1.136718-2.523438 3.78125-6.425781 3.78125h-75.007813c-3.90625 0-5.796875-2.644532-6.429687-3.78125-.632813-1.136719-1.878907-4.136719.175781-7.453125l23.609375-38.058594c.667968-1.078125 1.300781-2.179687 1.890625-3.296875 1.738281.292969 3.507812.605469 5.332031.925781 9.140625 1.613281 18.5 3.265625 27.640625 3.265625 1.953125 0 3.898437-.082031 5.832031-.246094l23.207032 37.410157c2.058593 3.316406.808593 6.316406.175781 7.453125zm-232.429688-118.910156c-17.097656 0-31.011719 15.167968-31.011719 33.8125 0 18.640624 13.914063 33.808593 31.011719 33.808593 17.101563 0 31.015625-15.167969 31.015625-33.808593 0-18.644532-13.914062-33.8125-31.015625-33.8125zm0 52.621093c-8.828125 0-16.011719-8.4375-16.011719-18.808593 0-10.375 7.183594-18.8125 16.011719-18.8125s16.015625 8.4375 16.015625 18.8125c0 10.371093-7.183594 18.808593-16.015625 18.808593zm130.691407-126.613281c6.160156 6.851562 14.976562 10.785156 24.183593 10.785156 2.089844 0 4.167969-.203125 6.207031-.597656l13.960938 21.875c1.746094 2.742188 4.769531 4.382812 7.996094 4.382812.203125 0 .414062-.003906.621094-.019531 1.769531-.117187 3.4375-.722656 4.839843-1.707031 1.402344.984375 3.066407 1.589844 4.839844 1.707031 3.449219.222657 6.753906-1.445312 8.613281-4.363281l13.960938-21.875c2.039062.394531 4.121094.59375 6.207031.59375 9.210937 0 18.027344-3.933594 24.1875-10.785156 6.15625-6.851563 9.125-16.066406 8.136719-25.285156-1.570313-14.699219-13.347656-26.757813-28.003906-28.679688-3.679688-.480469-7.347657-.347656-10.921876.394531-6.058593-9.0625-16.058593-14.429687-27.019531-14.429687-10.964843 0-20.964843 5.367187-27.019531 14.429687-3.578125-.746093-7.246094-.875-10.933594-.394531-14.652344 1.921875-26.429687 13.988281-28 28.6875-.980468 9.21875 1.988282 18.433594 8.144532 25.28125zm6.773437-23.6875c.84375-7.894531 7.164063-14.375 15.035156-15.40625 2.285157-.300781 4.546875-.167969 6.726563.390625 5.550781 1.425781 11.296875-.941406 14.308594-5.886719 3.210937-5.269531 8.804687-8.414062 14.964843-8.414062 6.15625 0 11.75 3.144531 14.960938 8.414062 3.015625 4.945313 8.765625 7.3125 14.3125 5.886719 2.175781-.558594 4.4375-.691406 6.722656-.390625 7.867187 1.03125 14.191406 7.507812 15.035156 15.398438.542969 5.066406-1.011719 9.921874-4.378906 13.664062-3.320313 3.695312-8.070313 5.8125-13.03125 5.8125-1.445313 0-2.878906-.175781-4.265625-.523438-5.265625-1.324218-10.730469.820313-13.609375 5.332032l-10.378906 16.265625c-1.554688-1.066407-3.417969-1.671875-5.367188-1.671875h-.003906c-1.976563 0-3.835937.589844-5.375 1.652344l-10.367187-16.246094c-2.878907-4.507813-8.347657-6.652344-13.609376-5.332032-1.386718.347657-2.820312.523438-4.265624.523438-4.960938 0-9.710938-2.117188-13.03125-5.808594-3.367188-3.742187-4.921876-8.59375-4.382813-13.660156zm-63.300781 101.894531c-4.144532 0-7.5 3.359375-7.5 7.5v12.519531c0 4.140626 3.355468 7.5 7.5 7.5 4.140625 0 7.5-3.359374 7.5-7.5v-12.519531c0-4.140625-3.359375-7.5-7.5-7.5zm-148.324219 0c-4.140625 0-7.5 3.359375-7.5 7.5v12.519531c0 4.140626 3.359375 7.5 7.5 7.5 4.144531 0 7.5-3.359374 7.5-7.5v-12.519531c0-4.140625-3.355469-7.5-7.5-7.5zm0 0"/></svg>