<svg height="511pt" viewBox="0 0 511.99847 511" width="511pt" xmlns="http://www.w3.org/2000/svg"><path d="m34.707031 457.28125-14.355469-15.722656c-4.625-5.066406-1.03125-13.21875 5.832032-13.21875h28.710937c6.859375 0 10.457031 8.152344 5.832031 13.21875l-14.355468 15.722656c-3.132813 3.429688-8.53125 3.429688-11.664063 0zm0 0" fill="#e26e7e"/><path d="m173.054688 504.996094c-5.867188 0-11.546876-3.125-14.546876-8.636719-21.761718-39.996094-13.027343-88.242187 4.296876-116.140625 4.820312-7.761719 15.015624-10.148438 22.78125-5.328125 7.757812 4.820313 10.144531 15.019531 5.324218 22.78125-12.828125 20.65625-18.097656 55.757813-3.34375 82.875 4.367188 8.027344 1.402344 18.070313-6.621094 22.433594-2.511718 1.367187-5.222656 2.015625-7.890624 2.015625zm0 0" fill="#efd176"/><path d="m285.609375 486.78125c-3.480469 0-6.992187-1.097656-9.980469-3.363281-7.277344-5.519531-8.707031-15.894531-3.1875-23.171875 5.453125-7.191406 7.28125-15.980469 5.429688-26.125-2.898438-15.929688-13.296875-28.738282-16.761719-30.917969-7.886719-4.609375-10.523437-14.734375-5.910156-22.621094 4.613281-7.882812 14.757812-10.527343 22.644531-5.917969 12.203125 7.140626 27.632812 28.628907 32.332031 52.234376 3.953125 19.867187.019531 38.308593-11.371093 53.332031-3.253907 4.292969-8.195313 6.550781-13.195313 6.550781zm0 0" fill="#efd176"/><path d="m412.039062 359.988281c-56.125 0-89.195312-36.488281-109.664062-65.039062-5.324219-7.425781-3.617188-17.757813 3.804688-23.082031 7.425781-5.324219 17.757812-3.617188 23.082031 3.804687 28.417969 39.640625 56.625 54.765625 94.320312 50.574219 9.085938-1.003906 17.257813 5.535156 18.265625 14.613281 1.007813 9.082031-5.53125 17.257813-14.613281 18.269531-5.242187.582032-10.308594.859375-15.195313.859375zm0 0" fill="#efd176"/><path d="m64.484375 336.710938c-7.1875 0-14.167969-1.074219-20.648437-3.4375-13.617188-4.964844-24.003907-15.023438-30.039063-29.089844-5.980469-13.933594-7.71875-31.964844-5.15625-53.59375 1.074219-9.070313 9.292969-15.554688 18.371094-14.480469 9.074219 1.074219 15.558593 9.300781 14.484375 18.371094-2.214844 18.683593-1.636719 42.128906 13.675781 47.710937 18.144531 6.613282 50.570313-9.273437 61.535156-25.964844 5.019531-7.632812 15.273438-9.757812 22.910157-4.738281 7.632812 5.019531 9.753906 15.273438 4.738281 22.910157-14.992188 22.8125-49.28125 42.3125-79.871094 42.3125zm0 0" fill="#efd176"/><path d="m177.699219 74.644531c23.273437 23.273438 27.261719 59.507813 27.660156 78.101563.144531 6.757812-5.382813 12.285156-12.136719 12.136718-18.597656-.394531-54.828125-4.382812-78.101562-27.65625-23.273438-23.273437-27.261719-59.507812-27.660156-78.101562-.144532-6.757812 5.378906-12.28125 12.136718-12.136719 18.597656.394531 54.828125 4.382813 78.101563 27.65625zm0 0" fill="#8ee2cf"/><path d="m160.367188 127.390625c-1.921876 0-3.839844-.730469-5.304688-2.195313l-27.914062-27.914062c-2.929688-2.925781-2.929688-7.675781 0-10.605469 2.929687-2.929687 7.679687-2.929687 10.605468 0l27.914063 27.914063c2.929687 2.929687 2.929687 7.675781 0 10.605468-1.464844 1.464844-3.382813 2.195313-5.300781 2.195313zm0 0" fill="#6fce91"/><path d="m268.648438 74.644531c-23.269532 23.273438-27.257813 59.507813-27.65625 78.101563-.144532 6.757812 5.378906 12.285156 12.136718 12.136718 18.59375-.394531 54.828125-4.382812 78.101563-27.65625 23.273437-23.273437 27.261719-59.507812 27.65625-78.101562.148437-6.757812-5.378907-12.28125-12.136719-12.136719-18.59375.394531-54.828125 4.382813-78.101562 27.65625zm0 0" fill="#8ee2cf"/><path d="m285.984375 127.390625c-1.917969 0-3.839844-.730469-5.304687-2.195313-2.925782-2.929687-2.925782-7.679687 0-10.605468l27.914062-27.914063c2.929688-2.929687 7.675781-2.929687 10.605469 0 2.929687 2.929688 2.929687 7.679688 0 10.605469l-27.910157 27.914062c-1.464843 1.464844-3.386718 2.195313-5.304687 2.195313zm0 0" fill="#6fce91"/><path d="m267.425781 86.441406c0 32.914063-22.800781 61.355469-35.667969 74.785156-4.675781 4.878907-12.492187 4.878907-17.164062 0-12.871094-13.429687-35.671875-41.871093-35.671875-74.785156 0-32.914062 22.800781-61.351562 35.671875-74.78125 4.675781-4.882812 12.488281-4.882812 17.164062 0 12.867188 13.429688 35.667969 41.867188 35.667969 74.78125zm0 0" fill="#8ee2cf"/><path d="m223.175781 113.679688c-4.144531 0-7.5-3.359376-7.5-7.5v-39.472657c0-4.144531 3.355469-7.5 7.5-7.5 4.140625 0 7.5 3.355469 7.5 7.5v39.472657c0 4.140624-3.359375 7.5-7.5 7.5zm0 0" fill="#6fce91"/><path d="m223.175781 134.328125c68.273438 0 117.078125 53.769531 123.621094 135.199219 6.804687 84.703125-25.054687 147.886718-123.621094 147.886718-98.566406 0-130.429687-63.183593-123.625-147.886718 6.542969-81.429688 55.347657-135.199219 123.625-135.199219zm0 0" fill="#f7ef87"/><path d="m182.359375 141.425781c-46.355469 17.113281-77.660156 64.046875-82.808594 128.101563-6.785156 84.46875 24.886719 147.527344 122.808594 147.878906-118.855469-72.71875-86.984375-203.921875-40-275.980469zm0 0" fill="#efd176"/><path d="m290.621094 155.019531c10.46875-5.835937 21.929687-15.164062 32.96875-29.390625 4.609375-5.945312 14.0625-3.738281 15.492187 3.644532 4.84375 25.011718-.40625 48.351562-15.554687 64.585937-13.617188 14.589844-38.019532 8.777344-44.117188-10.226563-3.527344-10.992187 1.125-22.992187 11.210938-28.613281zm0 0" fill="#e26e7e"/><path d="m155.730469 155.019531c-10.46875-5.835937-21.933594-15.164062-32.96875-29.390625-4.613281-5.945312-14.066407-3.738281-15.496094 3.644532-4.84375 25.011718.40625 48.351562 15.558594 64.585937 13.617187 14.589844 38.015625 8.777344 44.113281-10.226563 3.527344-10.992187-1.125-22.992187-11.207031-28.613281zm0 0" fill="#e26e7e"/><g fill="#efd176"><path d="m235.179688 238.738281c-1.921876 0-3.839844-.730469-5.304688-2.195312l-6.699219-6.703125-6.699219 6.703125c-2.929687 2.925781-7.679687 2.925781-10.609374 0-2.929688-2.929688-2.929688-7.679688 0-10.609375l12.003906-12.003906c2.929687-2.925782 7.679687-2.925782 10.605468 0l12.003907 12.003906c2.929687 2.929687 2.929687 7.679687 0 10.609375-1.464844 1.464843-3.382813 2.195312-5.300781 2.195312zm0 0"/><path d="m303.804688 238.738281c-1.917969 0-3.839844-.730469-5.304688-2.195312l-6.699219-6.703125-6.699219 6.703125c-2.929687 2.925781-7.679687 2.925781-10.605468 0-2.929688-2.929688-2.929688-7.679688 0-10.609375l12-12.003906c2.929687-2.925782 7.679687-2.925782 10.609375 0l12.003906 12.003906c2.925781 2.929687 2.925781 7.679687 0 10.609375-1.464844 1.464843-3.386719 2.195312-5.304687 2.195312zm0 0"/><path d="m166.550781 238.738281c-1.917969 0-3.835937-.730469-5.300781-2.195312l-6.699219-6.703125-6.703125 6.703125c-2.925781 2.925781-7.675781 2.925781-10.605468 0-2.929688-2.929688-2.929688-7.679688 0-10.609375l12.003906-12.003906c2.929687-2.925782 7.679687-2.925782 10.605468 0l12.003907 12.003906c2.929687 2.929687 2.929687 7.679687 0 10.609375-1.464844 1.464843-3.382813 2.195312-5.304688 2.195312zm0 0"/><path d="m269.492188 379.425781c-1.921876 0-3.839844-.734375-5.304688-2.199219l-6.699219-6.699218-6.699219 6.699218c-2.929687 2.929688-7.679687 2.929688-10.605468 0-2.929688-2.929687-2.929688-7.675781 0-10.605468l12-12.003906c2.929687-2.929688 7.679687-2.929688 10.609375 0l12 12.003906c2.929687 2.929687 2.929687 7.675781 0 10.605468-1.464844 1.464844-3.382813 2.199219-5.300781 2.199219zm0 0"/><path d="m200.867188 379.425781c-1.921876 0-3.839844-.734375-5.304688-2.199219l-6.699219-6.699218-6.699219 6.699218c-2.929687 2.929688-7.679687 2.929688-10.609374 0-2.929688-2.929687-2.929688-7.675781 0-10.605468l12.003906-12.003906c2.929687-2.929688 7.675781-2.929688 10.605468 0l12.003907 12.003906c2.929687 2.929687 2.929687 7.675781 0 10.605468-1.464844 1.464844-3.382813 2.199219-5.300781 2.199219zm0 0"/></g><path d="m172.972656 316.066406c0-12.910156-13.140625-23.375-29.355468-23.375-16.210938 0-29.355469 10.464844-29.355469 23.375 0 12.914063 13.144531 23.378906 29.355469 23.378906 16.214843 0 29.355468-10.464843 29.355468-23.378906zm0 0" fill="#eda1ab"/><path d="m332.085938 316.066406c0-12.910156-13.144532-23.375-29.355469-23.375-16.210938 0-29.355469 10.464844-29.355469 23.375 0 12.914063 13.144531 23.378906 29.355469 23.378906 16.210937 0 29.355469-10.464843 29.355469-23.378906zm0 0" fill="#eda1ab"/><path d="m261.742188 294.730469c0-16.679688-17.265626-18.246094-38.566407-18.246094s-38.570312 1.566406-38.570312 18.246094c0 16.679687 17.269531 30.203125 38.570312 30.203125s38.566407-13.523438 38.566407-30.203125zm0 0" fill="#fff"/><path d="m202.351562 320.148438c4.335938 2.183593 9.265626 3.703124 14.5625 4.382812v-47.984375c-5.296874.117187-10.226562.433594-14.5625 1.183594zm0 0" fill="#c6c6c6"/><path d="m229.4375 324.53125c5.292969-.679688 10.222656-2.203125 14.5625-4.382812v-42.417969c-4.339844-.75-9.269531-1.066407-14.5625-1.183594zm0 0" fill="#c6c6c6"/><path d="m492.898438 176.292969c-8.015626-1.824219-15.992188 3.203125-17.8125 11.21875l-9.796876 43.128906c-1.902343 8.371094-8.628906 14.484375-16.882812 15.738281v-74.058594c0-8.015624-6.164062-14.914062-14.167969-15.292968-8.550781-.402344-15.609375 6.410156-15.609375 14.871094v74.480468c-8.253906-1.253906-14.980468-7.367187-16.882812-15.742187l-9.703125-42.714844c-1.777344-7.816406-9.308594-13.175781-17.203125-11.769531-8.425782 1.5-13.800782 9.707031-11.925782 17.957031l9.796876 43.125c4.328124 19.050781 18.855468 33.347656 37.109374 37.746094 5.136719 1.238281 8.808594 5.746093 8.808594 11.03125v159.566406c0 8.015625 6.164063 14.914063 14.167969 15.289063 8.550781.402343 15.609375-6.410157 15.609375-14.871094v-159.984375c0-5.285157 3.671875-9.792969 8.8125-11.03125 18.253906-4.398438 32.777344-18.695313 37.105469-37.746094l9.796875-43.125c1.820312-8.019531-3.203125-15.996094-11.222656-17.816406zm0 0" fill="#e26e7e"/><path d="m169.609375 262.363281-12.375-2.183593c-4.074219-.71875-7.96875 2.003906-8.6875 6.085937-.71875 4.078125 2.003906 7.96875 6.085937 8.6875l3.113282.550781c-2.660156 1.152344-4.519532 3.796875-4.519532 6.878906v10.367188c0 4.140625 3.359376 7.5 7.5 7.5 4.144532 0 7.5-3.359375 7.5-7.5v-10.367188c0-2.148437-.90625-4.078124-2.351562-5.445312l1.132812.199219c.4375.078125.875.117187 1.308594.117187 3.570313 0 6.738282-2.5625 7.378906-6.199218.71875-4.082032-2.007812-7.972657-6.085937-8.691407zm119.503906-2.183593-12.375 2.183593c-4.078125.71875-6.800781 4.609375-6.082031 8.6875.640625 3.640625 3.804688 6.199219 7.375 6.199219.433594 0 .871094-.039062 1.3125-.113281l1.132812-.203125c-1.449218 1.367187-2.355468 3.300781-2.355468 5.449218v10.363282c0 4.144531 3.359375 7.5 7.5 7.5 4.144531 0 7.5-3.355469 7.5-7.5v-10.363282c0-3.082031-1.859375-5.726562-4.515625-6.882812l3.113281-.546875c4.078125-.722656 6.800781-4.609375 6.082031-8.691406-.71875-4.078125-4.605469-6.796875-8.6875-6.082031zm219.433594-81.300782c-3.1875-5.058594-8.15625-8.574218-13.980469-9.898437-5.835937-1.328125-11.832031-.304688-16.894531 2.886719-5.0625 3.1875-8.578125 8.152343-9.902344 13.984374l-9.792969 43.125c-.390624 1.722657-1.105468 3.300782-2.074218 4.671876v-61.328126c0-12.214843-9.359375-22.21875-21.3125-22.78125-6.1875-.289062-12.054688 1.894532-16.523438 6.160157-4.40625 4.207031-6.9375 10.109375-6.9375 16.199219v61.75c-.964844-1.371094-1.679687-2.949219-2.070312-4.671876l-9.703125-42.714843c-2.703125-11.90625-14.050781-19.59375-25.832031-17.496094-6.09375 1.089844-11.332032 4.523437-14.746094 9.671875-3.367188 5.074219-4.527344 11.394531-3.175782 17.332031l9.796876 43.125c4.90625 21.601563 21.253906 38.222657 42.664062 43.375 1.804688.4375 3.066406 1.972657 3.066406 3.742188v33.398437c-21.226562-.152344-38.828125-7.941406-55.980468-24.65625.132812-8.25-.152344-16.855468-.871094-25.828125-2.269532-28.207031-9.351563-53.378906-21.054688-74.914062 13.097656-16.957031 17.894532-39.398438 13.601563-64.089844 16.164062-24.167969 19.214843-54.398437 19.5625-70.640625.113281-5.332031-1.898438-10.34375-5.675781-14.117188-3.773438-3.773437-8.804688-5.808593-14.117188-5.675781-18.300781.390625-50.730469 4.035157-75.234375 22.851563-7.136719-24.558594-23.433594-44.648438-34.183594-55.871094-3.691406-3.847656-8.664062-5.96875-14-5.96875-5.335937 0-10.308593 2.121094-13.996093 5.96875-10.753907 11.222656-27.050782 31.3125-34.1875 55.871094-24.503907-18.816406-56.933594-22.460938-75.234376-22.851563-5.324218-.117187-10.34375 1.902344-14.117187 5.675781-3.773437 3.773438-5.789063 8.789063-5.675781 14.121094.023437 1.023438.054687 2.105469.101562 3.226563.164063 4.140625 3.671875 7.371093 7.792969 7.191406 4.140625-.167969 7.359375-3.65625 7.191406-7.796875-.039062-1.023438-.070312-2.007812-.089843-2.941406-.035157-1.625.789062-2.699219 1.285156-3.195313.496094-.496093 1.574218-1.34375 3.195312-1.285156 41.273438.882813 62.84375 15.648437 72.3125 24.832031-.207031 2.347656-.328125 4.722656-.328125 7.125 0 15.144532 4.347657 30.722656 12.902344 46.417969-10.054687 3.253906-19.585937 7.789063-28.386719 13.566406-9.714844-6.066406-18.867187-14.585937-27.253906-25.394531-3.972656-5.121094-10.351562-7.367188-16.640625-5.867188-1.144531.273438-2.234375.664063-3.261719 1.148438-3.539062-6.316406-6.453125-13.441406-8.679687-21.324219-1.125-3.984375-5.269531-6.304687-9.253907-5.179687-3.988281 1.125-6.308593 5.269531-5.179687 9.253906 3.292969 11.671875 7.957031 22.019531 13.859375 30.84375-4.300781 24.695312.496094 47.144531 13.601562 64.105469-11.707031 21.535156-18.789062 46.707031-21.054687 74.914062-.535156 6.660157-.835937 13.113281-.898437 19.371094-12.445313 6.820313-25.78125 9.640625-33.4375 6.847656-11.6875-4.261719-10.046876-29.242187-8.796876-39.78125 1.558594-13.164062-7.882812-25.144531-21.050781-26.703125-13.160156-1.554687-25.140625 7.882813-26.699219 21.046875-2.71875 22.949219-.796874 42.273438 5.710938 57.433594 6.871094 16.011719 18.753906 27.484375 34.363281 33.175781 7.085938 2.585938 14.898438 3.894532 23.21875 3.894532 10.285157 0 21.269531-2.023438 32.191407-5.878907 4.089843 15.789063 10.449218 29.550781 19.050781 41.234375-6.648438 3.128906-15.160157 4.519532-25.789063 4.226563-29.25-.828125-49.871094 13.21875-55.414062 37.046875h-8.339844c-6.191406 0-11.589844 3.519531-14.089844 9.183594-2.496094 5.660156-1.457031 12.019531 2.71875 16.59375l14.355469 15.722656c2.910156 3.1875 7.054687 5.015625 11.371094 5.015625 4.316406 0 8.457031-1.828125 11.367187-5.015625l14.355469-15.722656c4.175781-4.574219 5.214844-10.933594 2.71875-16.597657-2.5-5.664062-7.898437-9.183593-14.085937-9.183593h-4.785157c5.027344-14.679688 18.96875-22.609376 39.410157-22.050782 14.894531.417969 26.824218-2.066406 36.238281-7.550781 5.375 5.359375 11.34375 10.085937 17.898437 14.175781-9.53125 32.363282-6.566406 67.277344 8.265625 94.53125 4.210938 7.742188 12.308594 12.554688 21.128907 12.554688 3.988281 0 7.957031-1.011719 11.476562-2.925782 5.640625-3.070312 9.75-8.152343 11.566406-14.3125 1.820313-6.15625 1.132813-12.65625-1.9375-18.296874-8.429687-15.496094-10.285156-35.609376-5.300781-54.894532 10.628906 1.890625 22.070313 2.847656 34.320313 2.847656 15.21875 0 29.207031-1.46875 41.917968-4.390624 2.070313 3.835937 4.324219 9.042968 5.398438 14.941406 1.476562 8.101562.160156 14.726562-4.027344 20.246094-3.878906 5.121093-5.535156 11.441406-4.660156 17.800781.875 6.363281 4.175781 12.003906 9.292968 15.882812 4.214844 3.195313 9.234376 4.882813 14.511719 4.882813 7.601563 0 14.585938-3.46875 19.171875-9.515625 12.722656-16.785157 17.132813-37.300781 12.746094-59.332031-1.613281-8.117188-4.511719-16.417969-8.4375-24.347657 5.207031-3.816406 9.996094-8.082031 14.355469-12.804687 10.070312-10.910156 17.753906-24.058594 23.039062-39.367188 19.625 12.171875 41.320313 18.398438 64.644531 18.558594v78.105469c0 12.210937 9.363282 22.21875 21.316407 22.78125.355469.015625.707031.023437 1.058593.023437 7.027344 0 13.664063-3.289062 17.910157-8.9375 2.488281-3.308594 1.824219-8.011718-1.484375-10.5-3.308594-2.492187-8.011719-1.828125-10.503906 1.484375-1.472657 1.957031-3.804688 3.0625-6.277344 2.945313-3.871094-.183594-7.019532-3.679688-7.019532-7.800782v-159.558593c0-8.726563-5.984374-16.257813-14.554687-18.324219-15.828125-3.808594-27.914063-16.117188-31.550781-32.113281l-9.796875-43.125c-.449219-1.992188-.078125-4.023438 1.050781-5.722657 1.125-1.699218 2.855469-2.832031 4.875-3.191406 3.816406-.679687 7.664062 2.035156 8.574219 6.050782l9.703125 42.714843c2.570312 11.320313 11.628906 19.753907 23.070312 21.496094 2.164063.328125 4.359375-.304687 6.015625-1.730469 1.660157-1.425781 2.613281-3.5 2.613281-5.6875v-74.480468c0-2.039063.8125-3.9375 2.289063-5.34375s3.414063-2.132813 5.464844-2.03125c3.871093.179687 7.019531 3.679687 7.019531 7.796874v74.058594c0 2.1875.953125 4.265625 2.613281 5.6875 1.65625 1.425782 3.855469 2.058594 6.015625 1.730469 11.441406-1.738281 20.5-10.175781 23.070313-21.496094l9.796875-43.125c.4375-1.925781 1.597656-3.5625 3.269531-4.617187 1.667969-1.050782 3.644531-1.386719 5.570313-.949219 1.925781.4375 3.5625 1.597656 4.613281 3.265625 1.054687 1.671875 1.390625 3.652344.953125 5.574219l-9.792969 43.125c-3.636719 16-15.726563 28.304687-31.550781 32.117187-8.570313 2.0625-14.554688 9.597656-14.554688 18.320313v133.054687c0 4.144532 3.355469 7.5 7.5 7.5 4.140625 0 7.5-3.355468 7.5-7.5v-133.054687c0-1.769531 1.261719-3.304688 3.066406-3.742188 21.410157-5.15625 37.757813-21.773437 42.664063-43.375l9.796875-43.125c1.320312-5.832031.292969-11.828125-2.890625-16.890625zm-444.0625 150.332032c-6.5625 0-12.644531-1.003907-18.078125-2.984376-11.625-4.238281-20.519531-12.882812-25.71875-25-5.457031-12.710937-7.003906-29.453124-4.597656-49.753906.585937-4.949218 5.09375-8.5 10.039062-7.914062 4.953125.585937 8.503906 5.089844 7.917969 10.039062-2.53125 21.375-1.367187 48.375 18.554687 55.640625 8.394532 3.058594 22.40625 3.09375 38.984376-4.351562.394531 6.445312 1.066406 12.648437 2.019531 18.605469-9.960938 3.746093-19.929688 5.71875-29.121094 5.71875zm-9.589844 106.628906c.15625 0 .257813 0 .359375.234375.105469.238281.035156.3125-.066406.429687l-14.355469 15.722656c-.035156.039063-.117187.128907-.292969.128907-.175781 0-.257812-.089844-.292968-.128907l-14.355469-15.722656c-.105469-.117187-.171875-.191406-.070313-.429687.105469-.234375.207032-.234375.363282-.234375h14.65625.007812.011719zm263.148438-247.101563c-4.476563 4.796875-11.019531 6.792969-17.503907 5.34375-6.679687-1.496093-11.90625-6.257812-13.988281-12.742187-2.417969-7.535156.757813-15.765625 7.542969-19.660156.070312-.042969.140625-.082032.210938-.128907 12.757812-7.117187 24.601562-17.65625 35.207031-31.324219.109375-.140624.398437-.515624.964843-.515624.105469 0 .21875.015624.34375.042968.460938.109375.675782.359375.785157.585938.035156.125.074219.246094.113281.367187 4.484375 23.167969-.371094 43.777344-13.675781 58.03125zm-43.117188-102.296875c0-2.402344-.121093-4.773437-.328125-7.125 9.472656-9.183594 31.039063-23.949218 72.3125-24.832031 1.628906-.015625 2.699219.789063 3.195313 1.285156.492187.496094 1.316406 1.570313 1.285156 3.195313-.289063 13.378906-2.5625 37.28125-13.8125 57.355468-1.03125-.492187-2.125-.878906-3.273437-1.15625-6.292969-1.5-12.671876.746094-16.644532 5.867188-8.382812 10.804688-17.539062 19.328125-27.25 25.394531-8.804687-5.777343-18.335937-10.3125-28.390625-13.566406 8.558594-15.695313 12.90625-31.273437 12.90625-46.417969zm-54.917969-69.59375c1.125-1.171875 2.464844-1.347656 3.167969-1.347656.699219 0 2.042969.171875 3.167969 1.347656 29.21875 30.5 33.582031 56.695313 33.582031 69.59375 0 13.640625-4.367187 27.945313-12.960937 42.582032-7.726563-1.453126-15.679688-2.195313-23.789063-2.195313s-16.066406.742187-23.789062 2.195313c-8.59375-14.632813-12.960938-28.9375-12.960938-42.582032 0-12.898437 4.363281-39.097656 33.582031-69.59375zm-105.378906 113.855469c.039063-.117187.078125-.238281.113282-.355469.105468-.230468.324218-.480468.785156-.59375.125-.027344.238281-.039062.34375-.039062.566406 0 .855468.375.964844.511718 10.613281 13.679688 22.46875 24.226563 35.242187 31.347657.023437.011719.042969.027343.066406.039062.105469.066407.207031.132813.316407.195313 6.640624 3.941406 9.730468 12.074218 7.339843 19.53125-2.082031 6.484375-7.3125 11.246094-13.992187 12.742187-6.484375 1.453125-13.023438-.546875-17.5-5.339843-.003906 0-.003906-.003907-.003906-.003907l-.003907-.003906c-13.300781-14.257813-18.15625-34.863281-13.671875-58.03125zm62.730469 365.691406c-1.34375.730469-2.792969 1.101563-4.304687 1.101563-3.324219 0-6.371094-1.808594-7.957032-4.722656-12.515625-23.003907-15.304687-52.429688-7.882812-80.183594 5.359375 2.386718 11.023437 4.429687 17 6.125-5.773438 22.800781-3.390625 46.746094 6.765625 65.417968 2.382812 4.378907.757812 9.878907-3.621094 12.261719zm115.46875-20.695312c-1.726563 2.273437-4.355469 3.582031-7.21875 3.582031-1.976563 0-3.863281-.636719-5.449219-1.839844-1.925781-1.457031-3.164062-3.578125-3.496094-5.972656-.328124-2.390625.292969-4.769531 1.753907-6.695312 6.773437-8.933594 9.074219-19.699219 6.832031-32-1.140625-6.253907-3.214844-11.828126-5.46875-16.480469 5.832031-2.042969 11.355469-4.433594 16.539062-7.195313 3.003907 6.328125 5.226563 12.878906 6.496094 19.261719 3.523438 17.703125.070313 34.074219-9.988281 47.339844zm47.273437-178.597657c-.027343.28125-.035156.558594-.027343.839844-.417969 13.269532-2.042969 25.414063-4.875 36.402344-.183594.496094-.320313 1.003906-.394531 1.515625-4.570313 16.914063-12.035157 31.039063-22.382813 42.25-19.476563 21.101563-49.503906 31.804687-89.246094 31.804687-39.746093 0-69.769531-10.703124-89.25-31.804687-12.027343-13.035156-20.160156-30-24.375-50.714844-.046875-.488281-.144531-.976562-.292969-1.460937-1.957031-10.128906-2.980468-21.148438-3.082031-33.023438.007813-.257812.003907-.511718-.011719-.769531-.035156-7.039063.25-14.375.863282-22.011719 1.972656-24.539062 7.824218-46.480468 17.410156-65.375 5.15625 3.136719 11.050781 4.800782 17.144531 4.800782 2.480469 0 4.996094-.273438 7.503907-.835938 11.925781-2.671875 21.269531-11.191406 24.996093-22.796875 3.34375-10.421875 1.015625-21.558594-5.515625-29.6875 8.859375-5.226563 18.351563-9.042969 28.421875-11.425781.316407-.050782.625-.132813.933594-.226563 8.0625-1.832031 16.492187-2.753906 25.253906-2.753906s17.1875.921875 25.25 2.753906c.203125.0625.40625.105469.609375.148438 10.191406 2.378906 19.792969 6.222656 28.75 11.503906-6.53125 8.132813-8.859375 19.269531-5.515625 29.691406 3.722657 11.601563 13.066407 20.125 24.996094 22.792969 2.507813.5625 5.019531.835938 7.503906.835938 6.089844 0 11.988281-1.664063 17.144531-4.800782 9.582032 18.894532 15.4375 40.835938 17.410157 65.375.757812 9.449219 1.011719 18.441406.777343 26.972656zm71.027344 55.371094c-22.214844-.164062-42.023437-6.273437-60.371094-18.652344 1.445313-6.367187 2.535157-13.050781 3.273438-20.042968 17.285156 13.808594 35.839844 20.484375 57.097656 20.625zm-158.175781-80.1875c-7.71875-2.738281-17.484375-3.300781-29.777344-3.300781s-22.0625.5625-29.78125 3.300781c-13.464843 4.777344-16.289062 14.84375-16.289062 22.445313 0 20.789062 20.664062 37.703125 46.066406 37.703125s46.070313-16.914063 46.070313-37.703125c0-7.601563-2.824219-17.667969-16.289063-22.445313zm-29.777344 45.148438c-17.132812 0-31.070312-10.183594-31.070312-22.703125 0-7.128907 4.804687-10.746094 31.070312-10.746094 26.261719 0 31.066407 3.617187 31.066407 10.746094 0 12.519531-13.9375 22.703125-31.066407 22.703125zm0 0"/></svg>